<?xml version="1.0" encoding="utf-8"?>
<svg
  fill="#06C755"
  width="800px"
  height="800px"
  version="1.1"
  viewBox="-5.5 0 32 32"
  xmlns="http://www.w3.org/2000/svg">
  <path id="bubble"
    d="
      M10.656 5.93
      c5.938 0 10.719 3.875 10.719 8.688 0 2.344-1.156 4.406-2.969 6.031-2.938 2.906-8 5.844-8.531 5.625-0.875-0.344 0.656-2.219 0.031-3.031-0.094-0.125-0.438-0.094-1.063-0.188-5.156-0.688-8.844-4.094-8.844-8.469 0-4.813 4.75-8.656 10.656-8.656z
    "
    transform="rotate(180) translate(10.6, 2.4)"
    transform-origin="center"/>
  <g id="letters" fill="white">
    <path id="L"
      d="
        M4.563 17.5
        h1.813
        c0.313 0 0.5-0.25 0.5-0.563 0-0.219-0.156-0.5-0.563-0.5
        h-1.469
        c-0.125 0-0.125-0.125-0.125-0.563
        v-3.156
        c0-0.281-0.188-0.563-0.531-0.563-0.313 0-0.531 0.25-0.531 0.563
        v3.813
        c0 0.844 0.406 0.969 0.906 0.969z
      "
      transform="translate(12)"/>
    <path id="I"
      d="
        M8.656 17.063
        v-4.344
        c0-0.281-0.219-0.563-0.563-0.563-0.281 0-0.531 0.25-0.531 0.563
        v4.344
        c0 0.281 0.219 0.5 0.563 0.5 0.281 0 0.531-0.219 0.531-0.5z
      "
      transform="translate(1.5)"/>
    <path id="N"
      d="
        M13.781 16.469
        v-3.813
        c0-0.281-0.219-0.5-0.563-0.5-0.25 0-0.531 0.156-0.531 0.5
        v2.75
        l-1.813-2.531
        c-0.25-0.438-0.563-0.719-0.938-0.719-0.469 0-0.5 0.375-0.5 0.906
        v4
        c0 0.281 0.219 0.5 0.531 0.5 0.281 0 0.531-0.188 0.531-0.5
        v-2.844
        l1.813 2.531
        c0.406 0.531 0.5 0.813 1 0.813 0.344 0 0.469-0.313 0.469-1.094z
      "
      transform="translate(-6)"/>
    <path id="E"
      d="
        M17.281 14.313h-1.594v-0.906c0-0.094 0.031-0.219 0.188-0.219h1.406c0.344 0 0.563-0.188 0.563-0.531 0-0.406-0.313-0.531-0.594-0.531h-1.813c-0.563 0-0.844 0.375-0.844 0.875v3.531c0 0.625 0.25 0.969 0.844 0.969h1.844c0.406 0 0.563-0.25 0.563-0.563 0-0.406-0.313-0.531-0.563-0.531h-1.375c-0.125 0-0.219-0.094-0.219-0.188v-0.875h1.656c0.406 0 0.469-0.313 0.469-0.531 0-0.313-0.25-0.5-0.531-0.5z
      "
      transform="translate(-3)"/>
  </g>
</svg>